<?xml version="1.0" encoding="UTF-8"?>
<svg viewBox="0 0 741.90363 400.08215" xmlns="http://www.w3.org/2000/svg">
 <defs>
  <clipPath id="e">
   <path d="m65.194 166.41c188.11-66.663 387.05-65.764 444.36 2.0099s-48.73 176.76-236.84 243.42-387.05 65.764-444.36-2.0099 48.73-176.76 236.84-243.42z"/>
  </clipPath>
  <clipPath id="d">
   <path d="m516.2 562.22c-188.11 66.663-387.05 65.764-444.36-2.0099s48.73-176.76 236.84-243.42 387.05-65.764 444.36 2.0099-48.73 176.76-236.84 243.42z"/>
  </clipPath>
  <filter id="c">
   <feGaussianBlur stdDeviation="4.6117"/>
  </filter>
  <filter id="a" x="-.05887" y="-.15412" width="1.1178" height="1.3082">
   <feGaussianBlur stdDeviation="14.58676"/>
  </filter>
  <radialGradient id="b" cx="412.44" cy="439.51" r="364.15" gradientTransform="matrix(.11128 .40432 -.99505 .27386 803.87 152.38)" gradientUnits="userSpaceOnUse">
   <stop stop-color="#cd7c47" offset="0"/>
   <stop stop-color="#784421" offset=".95387"/>
   <stop stop-color="#502d16" offset="1"/>
  </radialGradient>
 </defs>
 <g transform="translate(-47.2 -267.38)">
  <path transform="translate(47.2 267.38)" d="m727.23 75.839c15.959 67.905-80.277 157.81-256.88 219-192.38 66.663-395.83 65.773-454.44-2-2.1347-2.4686-4.0545-4.9886-5.75-7.5625l-0.15625 0.0625c27.046 50.63 191.89 158.93 388.84 95.219 223.05-72.15 354.16-171.7 328.38-304.72z" fill="#502d16"/>
  <path d="m516.2 562.22c-188.11 66.663-387.05 65.764-444.36-2.0099s48.73-176.76 236.84-243.42 387.05-65.764 444.36 2.0099-48.73 176.76-236.84 243.42z" fill="#784421" stroke="url(#b)" stroke-width="16"/>
  <path d="m73.081 552.66c418.04-137.28 338.43-220.88 680.93-241.41-279.45 18.351-424.6 203.94-680.93 241.41z" fill="#2c180c" filter="url(#c)" opacity=".5"/>
  <path d="m73.081 552.66c418.04-137.28 338.43-220.88 680.93-241.41-279.45 18.351-424.6 203.94-680.93 241.41z" fill="#2c180c" opacity=".5"/>
  <path d="m747.42 380.03c-10.969 47.761-126.77 120.2-277.65 170.66-144.57 48.355-274 60.706-315.68 33.272 25.015 38.042 163.71 28.644 320.47-23.144 164.72-54.419 286.98-135.05 273.09-180.1-0.0735-0.23839-0.14917-0.46076-0.22999-0.69619z" clip-path="url(#d)" fill="#2c180c" filter="url(#a)" opacity=".75298"/>
  <path transform="matrix(-1 0 0 -1 581.39 728.63)" d="m481.71 230.03c-10.969 47.761-126.77 120.2-277.65 170.66-144.57 48.355-274 60.706-315.68 33.272 25.015 38.042 163.71 28.644 320.47-23.144 164.72-54.419 286.98-135.05 273.09-180.1-0.0735-0.23839-0.14917-0.46076-0.22999-0.69619z" clip-path="url(#e)" fill="#2c180c" filter="url(#a)" opacity=".75298"/>
 </g>
</svg>
